<mxfile host="65bd71144e">
    <diagram id="lHUsO2kwJ7aQyrkLWwhJ" name="페이지-1">
        <mxGraphModel dx="2287" dy="2361" grid="1" gridSize="10" guides="0" tooltips="1" connect="1" arrows="1" fold="1" page="1" pageScale="1" pageWidth="1169" pageHeight="827" background="none" math="0" shadow="0">
            <root>
                <mxCell id="0"/>
                <mxCell id="1" parent="0"/>
                <mxCell id="15" value="JAVA / DB " style="shape=table;startSize=200;container=1;collapsible=0;childLayout=tableLayout;fixedRows=1;rowLines=0;fontStyle=1;fontSize=70;fillColor=#1ba1e2;fontColor=#ffffff;strokeColor=#006EAF;" parent="1" vertex="1">
                    <mxGeometry y="-1410" width="1170" height="580" as="geometry"/>
                </mxCell>
                <mxCell id="16" value="" style="shape=tableRow;horizontal=0;startSize=0;swimlaneHead=0;swimlaneBody=0;top=0;left=0;bottom=0;right=0;collapsible=0;dropTarget=0;fillColor=none;points=[[0,0.5],[1,0.5]];portConstraint=eastwest;fontSize=23;" parent="15" vertex="1">
                    <mxGeometry y="200" width="1170" height="130" as="geometry"/>
                </mxCell>
                <mxCell id="17" value="1" style="shape=partialRectangle;html=1;whiteSpace=wrap;connectable=0;fillColor=#d0cee2;top=0;left=0;bottom=0;right=0;overflow=hidden;pointerEvents=1;fontSize=35;strokeColor=#56517e;fontColor=#000000;" parent="16" vertex="1">
                    <mxGeometry width="160" height="130" as="geometry">
                        <mxRectangle width="160" height="130" as="alternateBounds"/>
                    </mxGeometry>
                </mxCell>
                <mxCell id="18" value="&lt;table cellpadding=&quot;0&quot; cellspacing=&quot;0&quot; style=&quot;font-size: 35px;&quot;&gt;&lt;tbody style=&quot;font-size: 35px;&quot;&gt;&lt;tr style=&quot;font-size: 35px;&quot;&gt;&lt;td valign=&quot;top&quot; colspan=&quot;10&quot; style=&quot;font-size: 35px;&quot;&gt;&lt;p style=&quot;margin: 0px; font-variant-numeric: normal; font-variant-east-asian: normal; font-variant-alternates: normal; font-size-adjust: none; font-kerning: auto; font-optical-sizing: auto; font-feature-settings: normal; font-variation-settings: normal; font-variant-position: normal; font-stretch: normal; font-size: 35px; line-height: normal;&quot; class=&quot;p1&quot;&gt;JAVA, DB 이용한 console 플랫폼 제작 과 GIT 이용한 협업&lt;/p&gt;&lt;/td&gt;&lt;/tr&gt;&lt;/tbody&gt;&lt;/table&gt;" style="shape=partialRectangle;html=1;whiteSpace=wrap;connectable=0;fillColor=#d0cee2;top=0;left=0;bottom=0;right=0;align=left;spacingLeft=6;overflow=hidden;fontSize=35;strokeColor=#56517e;fontColor=#000000;" parent="16" vertex="1">
                    <mxGeometry x="160" width="1010" height="130" as="geometry">
                        <mxRectangle width="1010" height="130" as="alternateBounds"/>
                    </mxGeometry>
                </mxCell>
                <mxCell id="19" value="" style="shape=tableRow;horizontal=0;startSize=0;swimlaneHead=0;swimlaneBody=0;top=0;left=0;bottom=0;right=0;collapsible=0;dropTarget=0;fillColor=none;points=[[0,0.5],[1,0.5]];portConstraint=eastwest;fontSize=23;" parent="15" vertex="1">
                    <mxGeometry y="330" width="1170" height="130" as="geometry"/>
                </mxCell>
                <mxCell id="20" value="2" style="shape=partialRectangle;html=1;whiteSpace=wrap;connectable=0;fillColor=#d0cee2;top=0;left=0;bottom=0;right=0;overflow=hidden;fontSize=35;strokeColor=#56517e;fontColor=#000000;" parent="19" vertex="1">
                    <mxGeometry width="160" height="130" as="geometry">
                        <mxRectangle width="160" height="130" as="alternateBounds"/>
                    </mxGeometry>
                </mxCell>
                <mxCell id="21" value="&lt;table cellpadding=&quot;0&quot; cellspacing=&quot;0&quot; style=&quot;font-size: 35px;&quot;&gt;&lt;tbody style=&quot;font-size: 35px;&quot;&gt;&lt;tr style=&quot;font-size: 35px;&quot;&gt;&lt;td valign=&quot;top&quot; colspan=&quot;10&quot; style=&quot;font-size: 35px;&quot;&gt;&lt;p style=&quot;margin: 0px; font-variant-numeric: normal; font-variant-east-asian: normal; font-variant-alternates: normal; font-size-adjust: none; font-kerning: auto; font-optical-sizing: auto; font-feature-settings: normal; font-variation-settings: normal; font-variant-position: normal; font-stretch: normal; font-size: 35px; line-height: normal;&quot; class=&quot;p1&quot;&gt;강의간 부족했던 부분을 채우고 질의응답을 통해 개월차 강의 정리&lt;/p&gt;&lt;/td&gt;&lt;/tr&gt;&lt;/tbody&gt;&lt;/table&gt;" style="shape=partialRectangle;html=1;whiteSpace=wrap;connectable=0;fillColor=#d0cee2;top=0;left=0;bottom=0;right=0;align=left;spacingLeft=6;overflow=hidden;fontSize=35;strokeColor=#56517e;fontColor=#000000;" parent="19" vertex="1">
                    <mxGeometry x="160" width="1010" height="130" as="geometry">
                        <mxRectangle width="1010" height="130" as="alternateBounds"/>
                    </mxGeometry>
                </mxCell>
                <mxCell id="22" value="" style="shape=tableRow;horizontal=0;startSize=0;swimlaneHead=0;swimlaneBody=0;top=0;left=0;bottom=0;right=0;collapsible=0;dropTarget=0;fillColor=none;points=[[0,0.5],[1,0.5]];portConstraint=eastwest;fontSize=23;" parent="15" vertex="1">
                    <mxGeometry y="460" width="1170" height="120" as="geometry"/>
                </mxCell>
                <mxCell id="23" value="3" style="shape=partialRectangle;html=1;whiteSpace=wrap;connectable=0;fillColor=#d0cee2;top=0;left=0;bottom=0;right=0;overflow=hidden;fontSize=35;strokeColor=#56517e;fontColor=#000000;" parent="22" vertex="1">
                    <mxGeometry width="160" height="120" as="geometry">
                        <mxRectangle width="160" height="120" as="alternateBounds"/>
                    </mxGeometry>
                </mxCell>
                <mxCell id="24" value="&lt;table cellpadding=&quot;0&quot; cellspacing=&quot;0&quot; style=&quot;font-size: 35px;&quot;&gt;&lt;tbody style=&quot;font-size: 35px;&quot;&gt;&lt;tr style=&quot;font-size: 35px;&quot;&gt;&lt;td valign=&quot;top&quot; colspan=&quot;10&quot; style=&quot;font-size: 35px;&quot;&gt;&lt;p style=&quot;margin: 0px; font-variant-numeric: normal; font-variant-east-asian: normal; font-variant-alternates: normal; font-size-adjust: none; font-kerning: auto; font-optical-sizing: auto; font-feature-settings: normal; font-variation-settings: normal; font-variant-position: normal; font-stretch: normal; font-size: 35px; line-height: normal;&quot; class=&quot;p1&quot;&gt;JAVA , DB 프로그래밍 언어를 모두 활용할 수 있도록 하고 1인당 CRUD 구현을 1개 이상을 담당.&lt;/p&gt;&lt;/td&gt;&lt;/tr&gt;&lt;/tbody&gt;&lt;/table&gt;" style="shape=partialRectangle;html=1;whiteSpace=wrap;connectable=0;fillColor=#d0cee2;top=0;left=0;bottom=0;right=0;align=left;spacingLeft=6;overflow=hidden;fontSize=35;strokeColor=#56517e;fontColor=#000000;" parent="22" vertex="1">
                    <mxGeometry x="160" width="1010" height="120" as="geometry">
                        <mxRectangle width="1010" height="120" as="alternateBounds"/>
                    </mxGeometry>
                </mxCell>
                <mxCell id="26" value="메인화면" style="rounded=1;whiteSpace=wrap;html=1;fontSize=23;fontStyle=1;fontColor=#FF3333;" parent="1" vertex="1">
                    <mxGeometry x="560" y="-510" width="140" height="60" as="geometry"/>
                </mxCell>
                <mxCell id="29" value="1.렌트" style="rounded=1;whiteSpace=wrap;html=1;fontSize=23;fontColor=#66FFFF;" parent="1" vertex="1">
                    <mxGeometry x="260" y="-310" width="140" height="60" as="geometry"/>
                </mxCell>
                <mxCell id="37" value="1.국산차" style="rounded=1;whiteSpace=wrap;html=1;fontSize=23;fontColor=#33FF33;" parent="1" vertex="1">
                    <mxGeometry x="410" y="-60" width="140" height="60" as="geometry"/>
                </mxCell>
                <mxCell id="38" value="2.수입차" style="rounded=1;whiteSpace=wrap;html=1;fontSize=23;fontColor=#33FF33;" parent="1" vertex="1">
                    <mxGeometry x="720" y="-60" width="140" height="60" as="geometry"/>
                </mxCell>
                <mxCell id="51" value="2.리스" style="rounded=1;whiteSpace=wrap;html=1;fontSize=23;fontColor=#66FFFF;" parent="1" vertex="1">
                    <mxGeometry x="560" y="-310" width="140" height="60" as="geometry"/>
                </mxCell>
                <mxCell id="54" value="3.신차/할부" style="rounded=1;whiteSpace=wrap;html=1;fontSize=23;fontColor=#66FFFF;" parent="1" vertex="1">
                    <mxGeometry x="840" y="-310" width="140" height="60" as="geometry"/>
                </mxCell>
                <mxCell id="76" value="1.현대" style="whiteSpace=wrap;html=1;fontSize=23;fontColor=#FFFF33;rounded=1;" parent="1" vertex="1">
                    <mxGeometry x="-10" y="180" width="120" height="60" as="geometry"/>
                </mxCell>
                <mxCell id="78" value="2.기아" style="whiteSpace=wrap;html=1;fontSize=23;fontColor=#FFFF33;rounded=1;" parent="1" vertex="1">
                    <mxGeometry x="200" y="180" width="120" height="60" as="geometry"/>
                </mxCell>
                <mxCell id="81" value="3.쉐보레" style="whiteSpace=wrap;html=1;fontSize=23;fontColor=#FFFF33;rounded=1;" parent="1" vertex="1">
                    <mxGeometry x="420" y="180" width="120" height="60" as="geometry"/>
                </mxCell>
                <mxCell id="83" value="3.포드" style="whiteSpace=wrap;html=1;fontSize=23;fontColor=#FFFF33;rounded=1;" parent="1" vertex="1">
                    <mxGeometry x="1170" y="180" width="120" height="60" as="geometry"/>
                </mxCell>
                <mxCell id="85" value="1.BMW" style="whiteSpace=wrap;html=1;fontSize=23;fontColor=#FFFF33;rounded=1;" parent="1" vertex="1">
                    <mxGeometry x="730" y="180" width="120" height="60" as="geometry"/>
                </mxCell>
                <mxCell id="87" value="2.아우디" style="whiteSpace=wrap;html=1;fontSize=23;fontColor=#FFFF33;rounded=1;" parent="1" vertex="1">
                    <mxGeometry x="960" y="180" width="120" height="60" as="geometry"/>
                </mxCell>
                <mxCell id="179" value="1.그랜저" style="whiteSpace=wrap;html=1;fontSize=23;rounded=1;flipH=0;flipV=0;" parent="1" vertex="1">
                    <mxGeometry x="-330" y="380" width="170" height="60" as="geometry"/>
                </mxCell>
                <mxCell id="183" value="2.소나타" style="whiteSpace=wrap;html=1;fontSize=23;rounded=1;" parent="1" vertex="1">
                    <mxGeometry x="-320" y="690" width="170" height="60" as="geometry"/>
                </mxCell>
                <mxCell id="204" value="1.프리미엄" style="whiteSpace=wrap;html=1;fontSize=23;rounded=1;flipH=0;flipV=0;" parent="1" vertex="1">
                    <mxGeometry x="-630" y="380" width="170" height="60" as="geometry"/>
                </mxCell>
                <mxCell id="205" value="2.익스클루시브" style="whiteSpace=wrap;html=1;fontSize=23;rounded=1;flipH=0;flipV=0;" parent="1" vertex="1">
                    <mxGeometry x="-630" y="520" width="170" height="60" as="geometry"/>
                </mxCell>
                <mxCell id="216" value="1.프리미엄" style="whiteSpace=wrap;html=1;fontSize=23;rounded=1;" parent="1" vertex="1">
                    <mxGeometry x="-630" y="690" width="170" height="60" as="geometry"/>
                </mxCell>
                <mxCell id="217" value="2.익스클루시브" style="whiteSpace=wrap;html=1;fontSize=23;rounded=1;" parent="1" vertex="1">
                    <mxGeometry x="-630" y="840" width="170" height="60" as="geometry"/>
                </mxCell>
                <mxCell id="224" value="1.K5" style="whiteSpace=wrap;html=1;fontSize=23;rounded=1;flipH=0;flipV=0;" parent="1" vertex="1">
                    <mxGeometry x="-320" y="1010" width="170" height="60" as="geometry"/>
                </mxCell>
                <mxCell id="226" value="1.시그니처" style="whiteSpace=wrap;html=1;fontSize=23;rounded=1;flipH=0;flipV=0;" parent="1" vertex="1">
                    <mxGeometry x="-630" y="1010" width="170" height="60" as="geometry"/>
                </mxCell>
                <mxCell id="228" value="2.프리미엄" style="whiteSpace=wrap;html=1;fontSize=23;rounded=1;flipH=0;flipV=0;" parent="1" vertex="1">
                    <mxGeometry x="-630" y="1160" width="170" height="60" as="geometry"/>
                </mxCell>
                <mxCell id="229" value="2.K8" style="whiteSpace=wrap;html=1;fontSize=23;rounded=1;flipH=0;flipV=0;" parent="1" vertex="1">
                    <mxGeometry x="-320" y="1320" width="170" height="60" as="geometry"/>
                </mxCell>
                <mxCell id="231" value="1.시그니처" style="whiteSpace=wrap;html=1;fontSize=23;rounded=1;flipH=0;flipV=0;" parent="1" vertex="1">
                    <mxGeometry x="-630" y="1320" width="170" height="60" as="geometry"/>
                </mxCell>
                <mxCell id="233" value="2.프리미엄" style="whiteSpace=wrap;html=1;fontSize=23;rounded=1;flipH=0;flipV=0;" parent="1" vertex="1">
                    <mxGeometry x="-630" y="1470" width="170" height="60" as="geometry"/>
                </mxCell>
                <mxCell id="239" value="1.타호" style="whiteSpace=wrap;html=1;fontSize=23;rounded=1;flipH=0;flipV=0;" vertex="1" parent="1">
                    <mxGeometry x="-320" y="1690" width="170" height="60" as="geometry"/>
                </mxCell>
                <mxCell id="241" value="1.하이컨트리" style="whiteSpace=wrap;html=1;fontSize=23;rounded=1;flipH=0;flipV=0;" vertex="1" parent="1">
                    <mxGeometry x="-630" y="1690" width="170" height="60" as="geometry"/>
                </mxCell>
                <mxCell id="243" value="2.다트나이트" style="whiteSpace=wrap;html=1;fontSize=23;rounded=1;flipH=0;flipV=0;" vertex="1" parent="1">
                    <mxGeometry x="-630" y="1850" width="170" height="60" as="geometry"/>
                </mxCell>
                <mxCell id="247" value="2.트레블레이저" style="whiteSpace=wrap;html=1;fontSize=23;rounded=1;flipH=0;flipV=0;" vertex="1" parent="1">
                    <mxGeometry x="-320" y="2000" width="170" height="60" as="geometry"/>
                </mxCell>
                <mxCell id="249" value="1.RS" style="whiteSpace=wrap;html=1;fontSize=23;rounded=1;flipH=0;flipV=0;" vertex="1" parent="1">
                    <mxGeometry x="-620" y="2000" width="170" height="60" as="geometry"/>
                </mxCell>
                <mxCell id="251" value="2.프리미어" style="whiteSpace=wrap;html=1;fontSize=23;rounded=1;flipH=0;flipV=0;" vertex="1" parent="1">
                    <mxGeometry x="-620" y="2160" width="170" height="60" as="geometry"/>
                </mxCell>
                <mxCell id="351" value="" style="endArrow=classic;startArrow=classic;html=1;entryX=0.5;entryY=1;entryDx=0;entryDy=0;exitX=0.5;exitY=0;exitDx=0;exitDy=0;" edge="1" parent="1" source="29" target="26">
                    <mxGeometry width="50" height="50" relative="1" as="geometry">
                        <mxPoint x="140" y="330" as="sourcePoint"/>
                        <mxPoint x="190" y="280" as="targetPoint"/>
                        <Array as="points">
                            <mxPoint x="330" y="-390"/>
                            <mxPoint x="630" y="-390"/>
                        </Array>
                    </mxGeometry>
                </mxCell>
                <mxCell id="353" value="" style="endArrow=classic;startArrow=classic;html=1;exitX=0.5;exitY=0;exitDx=0;exitDy=0;entryX=0.5;entryY=1;entryDx=0;entryDy=0;" edge="1" parent="1" source="51" target="26">
                    <mxGeometry width="50" height="50" relative="1" as="geometry">
                        <mxPoint x="140" y="-230" as="sourcePoint"/>
                        <mxPoint x="190" y="-280" as="targetPoint"/>
                        <Array as="points"/>
                    </mxGeometry>
                </mxCell>
                <mxCell id="354" value="" style="endArrow=classic;html=1;exitX=0.5;exitY=0;exitDx=0;exitDy=0;startArrow=classic;startFill=1;" edge="1" parent="1" source="54">
                    <mxGeometry width="50" height="50" relative="1" as="geometry">
                        <mxPoint x="660" y="-230" as="sourcePoint"/>
                        <mxPoint x="630" y="-440" as="targetPoint"/>
                        <Array as="points">
                            <mxPoint x="910" y="-390"/>
                            <mxPoint x="630" y="-390"/>
                        </Array>
                    </mxGeometry>
                </mxCell>
                <mxCell id="355" value="" style="endArrow=classic;startArrow=classic;html=1;entryX=0.5;entryY=0;entryDx=0;entryDy=0;exitX=0.5;exitY=1;exitDx=0;exitDy=0;" edge="1" parent="1" source="29" target="37">
                    <mxGeometry width="50" height="50" relative="1" as="geometry">
                        <mxPoint x="660" y="190" as="sourcePoint"/>
                        <mxPoint x="710" y="140" as="targetPoint"/>
                        <Array as="points">
                            <mxPoint x="330" y="-160"/>
                            <mxPoint x="480" y="-160"/>
                        </Array>
                    </mxGeometry>
                </mxCell>
                <mxCell id="356" value="" style="endArrow=classic;startArrow=classic;html=1;entryX=0.5;entryY=1;entryDx=0;entryDy=0;exitX=0.5;exitY=0;exitDx=0;exitDy=0;" edge="1" parent="1" source="37" target="51">
                    <mxGeometry width="50" height="50" relative="1" as="geometry">
                        <mxPoint x="660" y="190" as="sourcePoint"/>
                        <mxPoint x="710" y="140" as="targetPoint"/>
                        <Array as="points">
                            <mxPoint x="480" y="-160"/>
                            <mxPoint x="630" y="-160"/>
                        </Array>
                    </mxGeometry>
                </mxCell>
                <mxCell id="357" value="" style="endArrow=classic;startArrow=classic;html=1;entryX=0.5;entryY=1;entryDx=0;entryDy=0;exitX=0.5;exitY=0;exitDx=0;exitDy=0;" edge="1" parent="1" source="38" target="54">
                    <mxGeometry width="50" height="50" relative="1" as="geometry">
                        <mxPoint x="660" y="190" as="sourcePoint"/>
                        <mxPoint x="710" y="140" as="targetPoint"/>
                        <Array as="points">
                            <mxPoint x="790" y="-160"/>
                            <mxPoint x="910" y="-160"/>
                        </Array>
                    </mxGeometry>
                </mxCell>
                <mxCell id="358" value="" style="endArrow=classic;startArrow=classic;html=1;entryX=0.5;entryY=1;entryDx=0;entryDy=0;exitX=0.5;exitY=0;exitDx=0;exitDy=0;" edge="1" parent="1" source="38" target="51">
                    <mxGeometry width="50" height="50" relative="1" as="geometry">
                        <mxPoint x="660" y="190" as="sourcePoint"/>
                        <mxPoint x="710" y="140" as="targetPoint"/>
                        <Array as="points">
                            <mxPoint x="790" y="-160"/>
                            <mxPoint x="630" y="-160"/>
                        </Array>
                    </mxGeometry>
                </mxCell>
                <mxCell id="359" value="" style="endArrow=classic;startArrow=classic;html=1;entryX=0.5;entryY=1;entryDx=0;entryDy=0;exitX=0.5;exitY=0;exitDx=0;exitDy=0;" edge="1" parent="1" source="81" target="37">
                    <mxGeometry width="50" height="50" relative="1" as="geometry">
                        <mxPoint x="660" y="210" as="sourcePoint"/>
                        <mxPoint x="710" y="160" as="targetPoint"/>
                        <Array as="points"/>
                    </mxGeometry>
                </mxCell>
                <mxCell id="360" value="" style="endArrow=classic;startArrow=classic;html=1;entryX=0.5;entryY=1;entryDx=0;entryDy=0;exitX=0.5;exitY=0;exitDx=0;exitDy=0;" edge="1" parent="1" source="78" target="37">
                    <mxGeometry width="50" height="50" relative="1" as="geometry">
                        <mxPoint x="660" y="210" as="sourcePoint"/>
                        <mxPoint x="710" y="160" as="targetPoint"/>
                        <Array as="points">
                            <mxPoint x="260" y="80"/>
                            <mxPoint x="480" y="80"/>
                        </Array>
                    </mxGeometry>
                </mxCell>
                <mxCell id="361" value="" style="endArrow=classic;startArrow=classic;html=1;entryX=0.5;entryY=1;entryDx=0;entryDy=0;exitX=0.5;exitY=0;exitDx=0;exitDy=0;" edge="1" parent="1" source="76" target="37">
                    <mxGeometry width="50" height="50" relative="1" as="geometry">
                        <mxPoint x="660" y="210" as="sourcePoint"/>
                        <mxPoint x="710" y="160" as="targetPoint"/>
                        <Array as="points">
                            <mxPoint x="50" y="80"/>
                            <mxPoint x="270" y="80"/>
                            <mxPoint x="480" y="80"/>
                        </Array>
                    </mxGeometry>
                </mxCell>
                <mxCell id="362" value="" style="endArrow=classic;startArrow=classic;html=1;entryX=0.5;entryY=1;entryDx=0;entryDy=0;exitX=0.5;exitY=0;exitDx=0;exitDy=0;" edge="1" parent="1" source="85" target="38">
                    <mxGeometry width="50" height="50" relative="1" as="geometry">
                        <mxPoint x="660" y="320" as="sourcePoint"/>
                        <mxPoint x="710" y="270" as="targetPoint"/>
                    </mxGeometry>
                </mxCell>
                <mxCell id="363" value="" style="endArrow=classic;startArrow=classic;html=1;entryX=0.5;entryY=1;entryDx=0;entryDy=0;exitX=0.5;exitY=0;exitDx=0;exitDy=0;" edge="1" parent="1" source="87" target="38">
                    <mxGeometry width="50" height="50" relative="1" as="geometry">
                        <mxPoint x="660" y="320" as="sourcePoint"/>
                        <mxPoint x="710" y="270" as="targetPoint"/>
                        <Array as="points">
                            <mxPoint x="1020" y="80"/>
                            <mxPoint x="790" y="80"/>
                        </Array>
                    </mxGeometry>
                </mxCell>
                <mxCell id="364" value="" style="endArrow=classic;html=1;exitX=0.5;exitY=0;exitDx=0;exitDy=0;startArrow=classic;startFill=1;" edge="1" parent="1" source="83">
                    <mxGeometry width="50" height="50" relative="1" as="geometry">
                        <mxPoint x="660" y="320" as="sourcePoint"/>
                        <mxPoint x="790" y="10" as="targetPoint"/>
                        <Array as="points">
                            <mxPoint x="1230" y="80"/>
                            <mxPoint x="1030" y="80"/>
                            <mxPoint x="790" y="80"/>
                        </Array>
                    </mxGeometry>
                </mxCell>
                <mxCell id="365" value="" style="endArrow=classic;startArrow=classic;html=1;entryX=0.5;entryY=1;entryDx=0;entryDy=0;exitX=1;exitY=0.5;exitDx=0;exitDy=0;" edge="1" parent="1" source="179" target="76">
                    <mxGeometry width="50" height="50" relative="1" as="geometry">
                        <mxPoint x="-150" y="780" as="sourcePoint"/>
                        <mxPoint x="-100" y="730" as="targetPoint"/>
                        <Array as="points">
                            <mxPoint x="50" y="410"/>
                        </Array>
                    </mxGeometry>
                </mxCell>
                <mxCell id="366" value="" style="endArrow=classic;startArrow=classic;html=1;entryX=0.5;entryY=1;entryDx=0;entryDy=0;exitX=1;exitY=0.5;exitDx=0;exitDy=0;" edge="1" parent="1" source="183" target="76">
                    <mxGeometry width="50" height="50" relative="1" as="geometry">
                        <mxPoint x="-150" y="780" as="sourcePoint"/>
                        <mxPoint x="-100" y="730" as="targetPoint"/>
                        <Array as="points">
                            <mxPoint x="50" y="720"/>
                        </Array>
                    </mxGeometry>
                </mxCell>
                <mxCell id="367" value="" style="endArrow=classic;startArrow=classic;html=1;entryX=0.5;entryY=1;entryDx=0;entryDy=0;exitX=1;exitY=0.5;exitDx=0;exitDy=0;" edge="1" parent="1" source="224" target="78">
                    <mxGeometry width="50" height="50" relative="1" as="geometry">
                        <mxPoint x="-150" y="810" as="sourcePoint"/>
                        <mxPoint x="-100" y="760" as="targetPoint"/>
                        <Array as="points">
                            <mxPoint x="260" y="1040"/>
                        </Array>
                    </mxGeometry>
                </mxCell>
                <mxCell id="368" value="" style="endArrow=classic;startArrow=classic;html=1;exitX=1;exitY=0.5;exitDx=0;exitDy=0;" edge="1" parent="1" source="229">
                    <mxGeometry width="50" height="50" relative="1" as="geometry">
                        <mxPoint x="-150" y="960" as="sourcePoint"/>
                        <mxPoint x="260" y="240" as="targetPoint"/>
                        <Array as="points">
                            <mxPoint x="260" y="1350"/>
                        </Array>
                    </mxGeometry>
                </mxCell>
                <mxCell id="369" value="" style="endArrow=classic;startArrow=classic;html=1;entryX=0;entryY=0.5;entryDx=0;entryDy=0;exitX=1;exitY=0.5;exitDx=0;exitDy=0;" edge="1" parent="1" source="204" target="179">
                    <mxGeometry width="50" height="50" relative="1" as="geometry">
                        <mxPoint x="150" y="790" as="sourcePoint"/>
                        <mxPoint x="200" y="740" as="targetPoint"/>
                    </mxGeometry>
                </mxCell>
                <mxCell id="370" value="" style="endArrow=classic;startArrow=classic;html=1;entryX=0;entryY=0.5;entryDx=0;entryDy=0;exitX=1;exitY=0.5;exitDx=0;exitDy=0;" edge="1" parent="1" source="205" target="179">
                    <mxGeometry width="50" height="50" relative="1" as="geometry">
                        <mxPoint x="150" y="790" as="sourcePoint"/>
                        <mxPoint x="200" y="740" as="targetPoint"/>
                        <Array as="points">
                            <mxPoint x="-400" y="550"/>
                            <mxPoint x="-400" y="410"/>
                        </Array>
                    </mxGeometry>
                </mxCell>
                <mxCell id="371" value="" style="endArrow=classic;startArrow=classic;html=1;entryX=0;entryY=0.5;entryDx=0;entryDy=0;exitX=1;exitY=0.5;exitDx=0;exitDy=0;" edge="1" parent="1" source="216" target="183">
                    <mxGeometry width="50" height="50" relative="1" as="geometry">
                        <mxPoint x="150" y="890" as="sourcePoint"/>
                        <mxPoint x="200" y="840" as="targetPoint"/>
                    </mxGeometry>
                </mxCell>
                <mxCell id="372" value="" style="endArrow=classic;startArrow=classic;html=1;entryX=0;entryY=0.5;entryDx=0;entryDy=0;exitX=1;exitY=0.5;exitDx=0;exitDy=0;" edge="1" parent="1" source="217" target="183">
                    <mxGeometry width="50" height="50" relative="1" as="geometry">
                        <mxPoint x="150" y="890" as="sourcePoint"/>
                        <mxPoint x="200" y="840" as="targetPoint"/>
                        <Array as="points">
                            <mxPoint x="-400" y="870"/>
                            <mxPoint x="-400" y="720"/>
                        </Array>
                    </mxGeometry>
                </mxCell>
                <mxCell id="373" value="" style="endArrow=classic;startArrow=classic;html=1;exitX=1;exitY=0.5;exitDx=0;exitDy=0;entryX=0;entryY=0.5;entryDx=0;entryDy=0;" edge="1" parent="1" source="226" target="224">
                    <mxGeometry width="50" height="50" relative="1" as="geometry">
                        <mxPoint x="150" y="890" as="sourcePoint"/>
                        <mxPoint x="200" y="840" as="targetPoint"/>
                    </mxGeometry>
                </mxCell>
                <mxCell id="375" value="" style="endArrow=classic;startArrow=classic;html=1;exitX=1;exitY=0.5;exitDx=0;exitDy=0;" edge="1" parent="1" source="228">
                    <mxGeometry width="50" height="50" relative="1" as="geometry">
                        <mxPoint x="150" y="890" as="sourcePoint"/>
                        <mxPoint x="-320" y="1040" as="targetPoint"/>
                        <Array as="points">
                            <mxPoint x="-400" y="1190"/>
                            <mxPoint x="-400" y="1040"/>
                        </Array>
                    </mxGeometry>
                </mxCell>
                <mxCell id="376" value="" style="endArrow=classic;startArrow=classic;html=1;exitX=1;exitY=0.5;exitDx=0;exitDy=0;entryX=0;entryY=0.5;entryDx=0;entryDy=0;" edge="1" parent="1" source="231" target="229">
                    <mxGeometry width="50" height="50" relative="1" as="geometry">
                        <mxPoint x="150" y="1160" as="sourcePoint"/>
                        <mxPoint x="200" y="1110" as="targetPoint"/>
                    </mxGeometry>
                </mxCell>
                <mxCell id="377" value="" style="endArrow=classic;startArrow=classic;html=1;exitX=1;exitY=0.5;exitDx=0;exitDy=0;entryX=0;entryY=0.5;entryDx=0;entryDy=0;" edge="1" parent="1" source="233" target="229">
                    <mxGeometry width="50" height="50" relative="1" as="geometry">
                        <mxPoint x="150" y="1160" as="sourcePoint"/>
                        <mxPoint x="200" y="1110" as="targetPoint"/>
                        <Array as="points">
                            <mxPoint x="-400" y="1500"/>
                            <mxPoint x="-400" y="1350"/>
                        </Array>
                    </mxGeometry>
                </mxCell>
                <mxCell id="379" value="" style="endArrow=classic;startArrow=classic;html=1;entryX=0;entryY=0.5;entryDx=0;entryDy=0;exitX=1;exitY=0.5;exitDx=0;exitDy=0;" edge="1" parent="1" source="241" target="239">
                    <mxGeometry width="50" height="50" relative="1" as="geometry">
                        <mxPoint x="-550" y="1850" as="sourcePoint"/>
                        <mxPoint x="-500" y="1800" as="targetPoint"/>
                    </mxGeometry>
                </mxCell>
                <mxCell id="380" value="" style="endArrow=classic;startArrow=classic;html=1;entryX=0;entryY=0.5;entryDx=0;entryDy=0;exitX=1;exitY=0.5;exitDx=0;exitDy=0;" edge="1" parent="1" source="243" target="239">
                    <mxGeometry width="50" height="50" relative="1" as="geometry">
                        <mxPoint x="-550" y="1850" as="sourcePoint"/>
                        <mxPoint x="-500" y="1800" as="targetPoint"/>
                        <Array as="points">
                            <mxPoint x="-400" y="1880"/>
                            <mxPoint x="-400" y="1720"/>
                        </Array>
                    </mxGeometry>
                </mxCell>
                <mxCell id="381" value="" style="endArrow=classic;startArrow=classic;html=1;entryX=0;entryY=0.5;entryDx=0;entryDy=0;exitX=1;exitY=0.5;exitDx=0;exitDy=0;" edge="1" parent="1" source="249" target="247">
                    <mxGeometry width="50" height="50" relative="1" as="geometry">
                        <mxPoint x="-550" y="1850" as="sourcePoint"/>
                        <mxPoint x="-500" y="1800" as="targetPoint"/>
                    </mxGeometry>
                </mxCell>
                <mxCell id="382" value="" style="endArrow=classic;startArrow=classic;html=1;entryX=0;entryY=0.5;entryDx=0;entryDy=0;exitX=1;exitY=0.5;exitDx=0;exitDy=0;" edge="1" parent="1" source="251" target="247">
                    <mxGeometry width="50" height="50" relative="1" as="geometry">
                        <mxPoint x="-550" y="1850" as="sourcePoint"/>
                        <mxPoint x="-500" y="1800" as="targetPoint"/>
                        <Array as="points">
                            <mxPoint x="-400" y="2190"/>
                            <mxPoint x="-400" y="2030"/>
                        </Array>
                    </mxGeometry>
                </mxCell>
                <mxCell id="384" value="" style="endArrow=classic;startArrow=classic;html=1;entryX=0.5;entryY=1;entryDx=0;entryDy=0;exitX=1;exitY=0.5;exitDx=0;exitDy=0;" edge="1" parent="1" source="239" target="81">
                    <mxGeometry width="50" height="50" relative="1" as="geometry">
                        <mxPoint x="260" y="770" as="sourcePoint"/>
                        <mxPoint x="310" y="720" as="targetPoint"/>
                        <Array as="points">
                            <mxPoint x="480" y="1720"/>
                        </Array>
                    </mxGeometry>
                </mxCell>
                <mxCell id="385" value="" style="endArrow=classic;startArrow=classic;html=1;exitX=1;exitY=0.5;exitDx=0;exitDy=0;entryX=0.5;entryY=1;entryDx=0;entryDy=0;" edge="1" parent="1" source="247" target="81">
                    <mxGeometry width="50" height="50" relative="1" as="geometry">
                        <mxPoint x="260" y="1730" as="sourcePoint"/>
                        <mxPoint x="310" y="1680" as="targetPoint"/>
                        <Array as="points">
                            <mxPoint x="480" y="2030"/>
                        </Array>
                    </mxGeometry>
                </mxCell>
                <mxCell id="388" value="" style="edgeStyle=none;html=1;startArrow=classic;startFill=1;" edge="1" parent="1" source="386">
                    <mxGeometry relative="1" as="geometry">
                        <mxPoint x="1800" y="370" as="targetPoint"/>
                    </mxGeometry>
                </mxCell>
                <mxCell id="386" value="1.3시리즈" style="whiteSpace=wrap;html=1;fontSize=23;rounded=1;flipH=0;flipV=0;" vertex="1" parent="1">
                    <mxGeometry x="1450" y="340" width="170" height="60" as="geometry"/>
                </mxCell>
                <mxCell id="390" value="" style="endArrow=classic;startArrow=classic;html=1;exitX=0;exitY=0.5;exitDx=0;exitDy=0;" edge="1" parent="1">
                    <mxGeometry width="50" height="50" relative="1" as="geometry">
                        <mxPoint x="1800" y="500" as="sourcePoint"/>
                        <mxPoint x="1630" y="370" as="targetPoint"/>
                        <Array as="points">
                            <mxPoint x="1720" y="500"/>
                            <mxPoint x="1720" y="370"/>
                        </Array>
                    </mxGeometry>
                </mxCell>
                <mxCell id="391" value="1.320I" style="whiteSpace=wrap;html=1;fontSize=23;rounded=1;flipH=0;flipV=0;" vertex="1" parent="1">
                    <mxGeometry x="1800" y="340" width="170" height="60" as="geometry"/>
                </mxCell>
                <mxCell id="392" value="2.M340i" style="whiteSpace=wrap;html=1;fontSize=23;rounded=1;flipH=0;flipV=0;" vertex="1" parent="1">
                    <mxGeometry x="1800" y="470" width="170" height="60" as="geometry"/>
                </mxCell>
                <mxCell id="393" value="" style="edgeStyle=none;html=1;startArrow=classic;startFill=1;" edge="1" source="394" parent="1">
                    <mxGeometry relative="1" as="geometry">
                        <mxPoint x="1810" y="670" as="targetPoint"/>
                    </mxGeometry>
                </mxCell>
                <mxCell id="394" value="2.5시리즈" style="whiteSpace=wrap;html=1;fontSize=23;rounded=1;flipH=0;flipV=0;" vertex="1" parent="1">
                    <mxGeometry x="1460" y="640" width="170" height="60" as="geometry"/>
                </mxCell>
                <mxCell id="395" value="" style="endArrow=classic;startArrow=classic;html=1;exitX=0;exitY=0.5;exitDx=0;exitDy=0;" edge="1" parent="1">
                    <mxGeometry width="50" height="50" relative="1" as="geometry">
                        <mxPoint x="1810" y="800" as="sourcePoint"/>
                        <mxPoint x="1640" y="670" as="targetPoint"/>
                        <Array as="points">
                            <mxPoint x="1730" y="800"/>
                            <mxPoint x="1730" y="670"/>
                        </Array>
                    </mxGeometry>
                </mxCell>
                <mxCell id="396" value="1.A6" style="whiteSpace=wrap;html=1;fontSize=23;rounded=1;flipH=0;flipV=0;" vertex="1" parent="1">
                    <mxGeometry x="1810" y="640" width="170" height="60" as="geometry"/>
                </mxCell>
                <mxCell id="397" value="2.A7" style="whiteSpace=wrap;html=1;fontSize=23;rounded=1;flipH=0;flipV=0;" vertex="1" parent="1">
                    <mxGeometry x="1810" y="770" width="170" height="60" as="geometry"/>
                </mxCell>
                <mxCell id="398" value="" style="edgeStyle=none;html=1;startArrow=classic;startFill=1;" edge="1" source="399" parent="1">
                    <mxGeometry relative="1" as="geometry">
                        <mxPoint x="1820" y="960" as="targetPoint"/>
                    </mxGeometry>
                </mxCell>
                <mxCell id="399" value="1.A6" style="whiteSpace=wrap;html=1;fontSize=23;rounded=1;flipH=0;flipV=0;" vertex="1" parent="1">
                    <mxGeometry x="1470" y="930" width="170" height="60" as="geometry"/>
                </mxCell>
                <mxCell id="400" value="" style="endArrow=classic;startArrow=classic;html=1;exitX=0;exitY=0.5;exitDx=0;exitDy=0;" edge="1" parent="1">
                    <mxGeometry width="50" height="50" relative="1" as="geometry">
                        <mxPoint x="1820" y="1090" as="sourcePoint"/>
                        <mxPoint x="1650" y="960" as="targetPoint"/>
                        <Array as="points">
                            <mxPoint x="1740" y="1090"/>
                            <mxPoint x="1740" y="960"/>
                        </Array>
                    </mxGeometry>
                </mxCell>
                <mxCell id="401" value="1.35TDI" style="whiteSpace=wrap;html=1;fontSize=23;rounded=1;flipH=0;flipV=0;" vertex="1" parent="1">
                    <mxGeometry x="1820" y="930" width="170" height="60" as="geometry"/>
                </mxCell>
                <mxCell id="402" value="2.45TDI" style="whiteSpace=wrap;html=1;fontSize=23;rounded=1;flipH=0;flipV=0;" vertex="1" parent="1">
                    <mxGeometry x="1820" y="1060" width="170" height="60" as="geometry"/>
                </mxCell>
                <mxCell id="403" value="" style="endArrow=classic;startArrow=classic;html=1;entryX=0.5;entryY=1;entryDx=0;entryDy=0;exitX=0;exitY=0.5;exitDx=0;exitDy=0;" edge="1" parent="1" source="386" target="85">
                    <mxGeometry width="50" height="50" relative="1" as="geometry">
                        <mxPoint x="1180" y="760" as="sourcePoint"/>
                        <mxPoint x="1230" y="710" as="targetPoint"/>
                        <Array as="points">
                            <mxPoint x="790" y="370"/>
                        </Array>
                    </mxGeometry>
                </mxCell>
                <mxCell id="404" value="" style="endArrow=classic;startArrow=classic;html=1;exitX=0;exitY=0.5;exitDx=0;exitDy=0;" edge="1" parent="1" source="394">
                    <mxGeometry width="50" height="50" relative="1" as="geometry">
                        <mxPoint x="1580" y="760" as="sourcePoint"/>
                        <mxPoint x="790" y="240" as="targetPoint"/>
                        <Array as="points">
                            <mxPoint x="790" y="670"/>
                        </Array>
                    </mxGeometry>
                </mxCell>
                <mxCell id="405" value="" style="endArrow=classic;startArrow=classic;html=1;entryX=0.5;entryY=1;entryDx=0;entryDy=0;exitX=0;exitY=0.5;exitDx=0;exitDy=0;" edge="1" parent="1" source="399" target="87">
                    <mxGeometry width="50" height="50" relative="1" as="geometry">
                        <mxPoint x="1360" y="850" as="sourcePoint"/>
                        <mxPoint x="1410" y="800" as="targetPoint"/>
                        <Array as="points">
                            <mxPoint x="1020" y="960"/>
                        </Array>
                    </mxGeometry>
                </mxCell>
                <mxCell id="406" value="" style="edgeStyle=none;html=1;startArrow=classic;startFill=1;" edge="1" source="407" parent="1">
                    <mxGeometry relative="1" as="geometry">
                        <mxPoint x="1820" y="1240" as="targetPoint"/>
                    </mxGeometry>
                </mxCell>
                <mxCell id="407" value="2.A7" style="whiteSpace=wrap;html=1;fontSize=23;rounded=1;flipH=0;flipV=0;" vertex="1" parent="1">
                    <mxGeometry x="1470" y="1210" width="170" height="60" as="geometry"/>
                </mxCell>
                <mxCell id="408" value="" style="endArrow=classic;startArrow=classic;html=1;exitX=0;exitY=0.5;exitDx=0;exitDy=0;" edge="1" parent="1">
                    <mxGeometry width="50" height="50" relative="1" as="geometry">
                        <mxPoint x="1820" y="1370" as="sourcePoint"/>
                        <mxPoint x="1650" y="1240" as="targetPoint"/>
                        <Array as="points">
                            <mxPoint x="1740" y="1370"/>
                            <mxPoint x="1740" y="1240"/>
                        </Array>
                    </mxGeometry>
                </mxCell>
                <mxCell id="409" value="1.45TDI" style="whiteSpace=wrap;html=1;fontSize=23;rounded=1;flipH=0;flipV=0;" vertex="1" parent="1">
                    <mxGeometry x="1820" y="1210" width="170" height="60" as="geometry"/>
                </mxCell>
                <mxCell id="410" value="2.55TDI" style="whiteSpace=wrap;html=1;fontSize=23;rounded=1;flipH=0;flipV=0;" vertex="1" parent="1">
                    <mxGeometry x="1820" y="1340" width="170" height="60" as="geometry"/>
                </mxCell>
                <mxCell id="411" value="" style="endArrow=classic;startArrow=classic;html=1;entryX=0.5;entryY=1;entryDx=0;entryDy=0;exitX=0;exitY=0.5;exitDx=0;exitDy=0;" edge="1" parent="1" source="407" target="87">
                    <mxGeometry width="50" height="50" relative="1" as="geometry">
                        <mxPoint x="1360" y="870" as="sourcePoint"/>
                        <mxPoint x="1410" y="820" as="targetPoint"/>
                        <Array as="points">
                            <mxPoint x="1020" y="1240"/>
                        </Array>
                    </mxGeometry>
                </mxCell>
                <mxCell id="412" value="" style="edgeStyle=none;html=1;startArrow=classic;startFill=1;" edge="1" source="413" parent="1">
                    <mxGeometry relative="1" as="geometry">
                        <mxPoint x="1820" y="1510" as="targetPoint"/>
                    </mxGeometry>
                </mxCell>
                <mxCell id="413" value="1.머스탱" style="whiteSpace=wrap;html=1;fontSize=23;rounded=1;flipH=0;flipV=0;" vertex="1" parent="1">
                    <mxGeometry x="1470" y="1480" width="170" height="60" as="geometry"/>
                </mxCell>
                <mxCell id="414" value="" style="endArrow=classic;startArrow=classic;html=1;exitX=0;exitY=0.5;exitDx=0;exitDy=0;" edge="1" parent="1">
                    <mxGeometry width="50" height="50" relative="1" as="geometry">
                        <mxPoint x="1820" y="1640" as="sourcePoint"/>
                        <mxPoint x="1650" y="1510" as="targetPoint"/>
                        <Array as="points">
                            <mxPoint x="1740" y="1640"/>
                            <mxPoint x="1740" y="1510"/>
                        </Array>
                    </mxGeometry>
                </mxCell>
                <mxCell id="415" value="1.쿠페" style="whiteSpace=wrap;html=1;fontSize=23;rounded=1;flipH=0;flipV=0;" vertex="1" parent="1">
                    <mxGeometry x="1820" y="1480" width="170" height="60" as="geometry"/>
                </mxCell>
                <mxCell id="416" value="2.컨버터블" style="whiteSpace=wrap;html=1;fontSize=23;rounded=1;flipH=0;flipV=0;" vertex="1" parent="1">
                    <mxGeometry x="1820" y="1610" width="170" height="60" as="geometry"/>
                </mxCell>
                <mxCell id="417" value="" style="edgeStyle=none;html=1;startArrow=classic;startFill=1;" edge="1" source="418" parent="1">
                    <mxGeometry relative="1" as="geometry">
                        <mxPoint x="1820" y="1790" as="targetPoint"/>
                    </mxGeometry>
                </mxCell>
                <mxCell id="418" value="2.익스플로러" style="whiteSpace=wrap;html=1;fontSize=23;rounded=1;flipH=0;flipV=0;" vertex="1" parent="1">
                    <mxGeometry x="1470" y="1760" width="170" height="60" as="geometry"/>
                </mxCell>
                <mxCell id="419" value="" style="endArrow=classic;startArrow=classic;html=1;exitX=0;exitY=0.5;exitDx=0;exitDy=0;" edge="1" parent="1">
                    <mxGeometry width="50" height="50" relative="1" as="geometry">
                        <mxPoint x="1820" y="1920" as="sourcePoint"/>
                        <mxPoint x="1650" y="1790" as="targetPoint"/>
                        <Array as="points">
                            <mxPoint x="1740" y="1920"/>
                            <mxPoint x="1740" y="1790"/>
                        </Array>
                    </mxGeometry>
                </mxCell>
                <mxCell id="420" value="1.ST-LINE" style="whiteSpace=wrap;html=1;fontSize=23;rounded=1;flipH=0;flipV=0;" vertex="1" parent="1">
                    <mxGeometry x="1820" y="1760" width="170" height="60" as="geometry"/>
                </mxCell>
                <mxCell id="421" value="2.PLATINUM" style="whiteSpace=wrap;html=1;fontSize=23;rounded=1;flipH=0;flipV=0;" vertex="1" parent="1">
                    <mxGeometry x="1820" y="1890" width="170" height="60" as="geometry"/>
                </mxCell>
                <mxCell id="422" value="" style="endArrow=classic;startArrow=classic;html=1;entryX=0;entryY=0.5;entryDx=0;entryDy=0;exitX=0.5;exitY=1;exitDx=0;exitDy=0;" edge="1" parent="1" source="83" target="413">
                    <mxGeometry width="50" height="50" relative="1" as="geometry">
                        <mxPoint x="1360" y="1370" as="sourcePoint"/>
                        <mxPoint x="1410" y="1320" as="targetPoint"/>
                        <Array as="points">
                            <mxPoint x="1240" y="1510"/>
                        </Array>
                    </mxGeometry>
                </mxCell>
                <mxCell id="423" value="" style="endArrow=classic;startArrow=classic;html=1;exitX=0;exitY=0.5;exitDx=0;exitDy=0;entryX=0.5;entryY=1;entryDx=0;entryDy=0;" edge="1" parent="1" source="418" target="83">
                    <mxGeometry width="50" height="50" relative="1" as="geometry">
                        <mxPoint x="1360" y="1410" as="sourcePoint"/>
                        <mxPoint x="1410" y="1360" as="targetPoint"/>
                        <Array as="points">
                            <mxPoint x="1240" y="1790"/>
                        </Array>
                    </mxGeometry>
                </mxCell>
            </root>
        </mxGraphModel>
    </diagram>
</mxfile>